<svg width="130" height="32" viewBox="0 0 130 32" fill="none" xmlns="http://www.w3.org/2000/svg">
<path d="M15.9997 1.33203L28.6663 8.66536V23.332L15.9997 30.6654L3.33301 23.332V8.66536L15.9997 1.33203ZM8.66495 13.2932L14.6663 16.7678V23.499H17.333V16.7678L23.3343 13.2932L21.9983 10.9854L15.9997 14.4583L10.0011 10.9854L8.66495 13.2932Z" fill="url(#paint0_linear_10015_23286)"/>
<path d="M45.148 23L40.18 9.842H42.628L45.508 17.42C45.652 17.804 45.79 18.206 45.922 18.626C46.054 19.046 46.192 19.52 46.336 20.048C46.492 19.472 46.642 18.974 46.786 18.554C46.93 18.134 47.062 17.756 47.182 17.42L50.026 9.842H52.42L47.524 23H45.148ZM54.8718 23.234C53.9358 23.234 53.1918 22.982 52.6398 22.478C52.0998 21.962 51.8298 21.29 51.8298 20.462C51.8298 19.646 52.1118 18.998 52.6758 18.518C53.2518 18.026 54.0678 17.738 55.1238 17.654L57.7878 17.438V17.24C57.7878 16.832 57.7098 16.508 57.5538 16.268C57.4098 16.016 57.1998 15.836 56.9238 15.728C56.6478 15.608 56.3238 15.548 55.9518 15.548C55.3038 15.548 54.8058 15.68 54.4578 15.944C54.1098 16.196 53.9358 16.556 53.9358 17.024H52.0638C52.0638 16.376 52.2258 15.818 52.5498 15.35C52.8858 14.87 53.3538 14.498 53.9538 14.234C54.5658 13.97 55.2678 13.838 56.0598 13.838C56.8638 13.838 57.5538 13.982 58.1298 14.27C58.7058 14.546 59.1498 14.966 59.4618 15.53C59.7738 16.082 59.9298 16.772 59.9298 17.6V23H58.0038L57.8418 21.686C57.6498 22.142 57.2778 22.514 56.7258 22.802C56.1858 23.09 55.5678 23.234 54.8718 23.234ZM55.5738 21.578C56.2578 21.578 56.7978 21.386 57.1938 21.002C57.6018 20.618 57.8058 20.084 57.8058 19.4V18.932L55.9518 19.076C55.2678 19.136 54.7818 19.28 54.4938 19.508C54.2058 19.724 54.0618 20.012 54.0618 20.372C54.0618 20.768 54.1938 21.068 54.4578 21.272C54.7218 21.476 55.0938 21.578 55.5738 21.578ZM64.3011 23H62.1231V9.608H64.3011V23ZM72.6347 14.108H74.8307V23H72.7967L72.6347 21.812C72.3707 22.232 71.9747 22.574 71.4467 22.838C70.9187 23.102 70.3547 23.234 69.7547 23.234C68.7347 23.234 67.9367 22.91 67.3607 22.262C66.7847 21.614 66.4967 20.75 66.4967 19.67V14.108H68.6927V18.896C68.6927 19.736 68.8547 20.342 69.1787 20.714C69.5027 21.086 69.9707 21.272 70.5827 21.272C71.2787 21.272 71.7947 21.068 72.1307 20.66C72.4667 20.24 72.6347 19.61 72.6347 18.77V14.108ZM80.9011 23.234C80.0251 23.234 79.2451 23.036 78.5611 22.64C77.8891 22.232 77.3611 21.68 76.9771 20.984C76.5931 20.276 76.4011 19.466 76.4011 18.554C76.4011 17.63 76.5871 16.814 76.9591 16.106C77.3311 15.398 77.8531 14.846 78.5251 14.45C79.1971 14.042 79.9651 13.838 80.8291 13.838C81.7291 13.838 82.5031 14.03 83.1511 14.414C83.7991 14.786 84.2971 15.308 84.6451 15.98C85.0051 16.652 85.1851 17.456 85.1851 18.392V19.058L77.5531 19.076L77.5891 17.672H83.0071C83.0071 17.06 82.8091 16.568 82.4131 16.196C82.0291 15.824 81.5071 15.638 80.8471 15.638C80.3311 15.638 79.8931 15.746 79.5331 15.962C79.1851 16.178 78.9211 16.502 78.7411 16.934C78.5611 17.366 78.4711 17.894 78.4711 18.518C78.4711 19.478 78.6751 20.204 79.0831 20.696C79.5031 21.188 80.1211 21.434 80.9371 21.434C81.5371 21.434 82.0291 21.32 82.4131 21.092C82.8091 20.864 83.0671 20.54 83.1871 20.12H85.2211C85.0291 21.092 84.5491 21.854 83.7811 22.406C83.0251 22.958 82.0651 23.234 80.9011 23.234ZM89.5706 9.842V23H87.2666V9.842H89.5706ZM92.4866 17.402H88.8686V15.458H92.3606C92.9966 15.458 93.4826 15.302 93.8186 14.99C94.1546 14.666 94.3226 14.21 94.3226 13.622C94.3226 13.058 94.1486 12.626 93.8006 12.326C93.4526 12.026 92.9486 11.876 92.2886 11.876H88.7966V9.842H92.4866C93.7946 9.842 94.8206 10.16 95.5646 10.796C96.3086 11.432 96.6806 12.302 96.6806 13.406C96.6806 14.198 96.4886 14.864 96.1046 15.404C95.7206 15.932 95.1506 16.316 94.3946 16.556V16.304C95.2106 16.496 95.8286 16.856 96.2486 17.384C96.6686 17.912 96.8786 18.596 96.8786 19.436C96.8786 20.18 96.7106 20.822 96.3746 21.362C96.0386 21.89 95.5466 22.298 94.8986 22.586C94.2626 22.862 93.4946 23 92.5946 23H88.7966V20.966H92.4866C93.1466 20.966 93.6506 20.81 93.9986 20.498C94.3466 20.186 94.5206 19.736 94.5206 19.148C94.5206 18.596 94.3406 18.17 93.9806 17.87C93.6326 17.558 93.1346 17.402 92.4866 17.402ZM98.1452 18.536C98.1452 17.612 98.3492 16.802 98.7572 16.106C99.1652 15.398 99.7292 14.846 100.449 14.45C101.169 14.054 101.985 13.856 102.897 13.856C103.821 13.856 104.637 14.054 105.345 14.45C106.065 14.846 106.629 15.398 107.037 16.106C107.445 16.802 107.649 17.612 107.649 18.536C107.649 19.46 107.445 20.276 107.037 20.984C106.629 21.68 106.065 22.226 105.345 22.622C104.637 23.018 103.821 23.216 102.897 23.216C101.985 23.216 101.169 23.018 100.449 22.622C99.7292 22.226 99.1652 21.68 98.7572 20.984C98.3492 20.276 98.1452 19.46 98.1452 18.536ZM100.341 18.536C100.341 19.076 100.449 19.55 100.665 19.958C100.893 20.366 101.193 20.684 101.565 20.912C101.949 21.14 102.393 21.254 102.897 21.254C103.401 21.254 103.845 21.14 104.229 20.912C104.613 20.684 104.913 20.366 105.129 19.958C105.345 19.55 105.453 19.076 105.453 18.536C105.453 17.984 105.345 17.51 105.129 17.114C104.913 16.706 104.613 16.388 104.229 16.16C103.845 15.932 103.401 15.818 102.897 15.818C102.393 15.818 101.949 15.932 101.565 16.16C101.193 16.388 100.893 16.706 100.665 17.114C100.449 17.51 100.341 17.984 100.341 18.536ZM110.534 23H108.032L111.092 18.644L108.032 14.108H110.588L112.55 17.132L114.44 14.108H116.906L113.882 18.626L116.816 23H114.296L112.388 20.066L110.534 23Z" fill="white"/>
<defs>
<linearGradient id="paint0_linear_10015_23286" x1="15.9997" y1="1.33203" x2="15.9997" y2="30.6654" gradientUnits="userSpaceOnUse">
<stop offset="0.307692" stop-color="#008ECC"/>
<stop offset="1" stop-color="#2D70FF"/>
</linearGradient>
</defs>
</svg>
