<svg width="34" height="21" viewBox="0 0 34 21" fill="none" xmlns="http://www.w3.org/2000/svg">
<g clip-path="url(#clip0_10004_9169)">
<g clip-path="url(#clip1_10004_9169)">
<g clip-path="url(#clip2_10004_9169)">
<path d="M30.625 -0.0078125H2.625C1.1375 -0.0078125 0 1.12969 0 2.61719V18.3672C0 19.8547 1.225 20.9922 2.625 20.9922H30.625C32.1125 20.9922 33.25 19.8547 33.25 18.3672V2.61719C33.25 1.12969 32.025 -0.0078125 30.625 -0.0078125Z" fill="#D7D4D2"/>
<path d="M30.625 0.867188C31.5875 0.867188 32.375 1.65469 32.375 2.61719V18.3672C32.375 19.3297 31.5875 20.1172 30.625 20.1172H2.625C1.6625 20.1172 0.875 19.3297 0.875 18.3672V2.61719C0.875 1.65469 1.6625 0.867188 2.625 0.867188H30.625Z" fill="#F8FAFC"/>
<g clip-path="url(#clip3_10004_9169)">
<path d="M9.16123 6.87089C8.87847 7.20549 8.42605 7.4694 7.97364 7.43169C7.91708 6.97928 8.13858 6.49858 8.39778 6.20169C8.68054 5.85766 9.17537 5.6126 9.57595 5.59375C9.62307 6.06502 9.43928 6.52686 9.16123 6.87089ZM9.57123 7.52123C8.91617 7.48353 8.35536 7.89354 8.04433 7.89354C7.72858 7.89354 7.2526 7.54009 6.7342 7.54951C6.06029 7.55894 5.4335 7.94066 5.08948 8.5486C4.38258 9.76447 4.90568 11.5647 5.58902 12.5544C5.92362 13.0445 6.3242 13.5817 6.85202 13.5629C7.35156 13.544 7.5495 13.2377 8.15272 13.2377C8.76065 13.2377 8.93502 13.5629 9.46284 13.5535C10.0095 13.544 10.3535 13.0633 10.6881 12.5732C11.0699 12.0171 11.2254 11.4752 11.2348 11.4469C11.2254 11.4375 10.1792 11.0369 10.1697 9.83045C10.1603 8.82193 10.9945 8.34124 11.0322 8.31296C10.5609 7.61549 9.82572 7.54009 9.57123 7.52123ZM13.3555 6.15456V13.5016H14.496V10.9898H16.0747C17.5168 10.9898 18.53 10.0001 18.53 8.56745C18.53 7.1348 17.5357 6.15456 16.1124 6.15456H13.3555ZM14.496 7.11594H15.8108C16.8005 7.11594 17.366 7.64376 17.366 8.57216C17.366 9.50056 16.8005 10.0331 15.8061 10.0331H14.496V7.11594ZM20.613 13.5582C21.3294 13.5582 21.9939 13.1953 22.2955 12.6204H22.319V13.5016H23.3747V9.84458C23.3747 8.78423 22.5264 8.10089 21.221 8.10089C20.0098 8.10089 19.1144 8.79366 19.0814 9.74562H20.1088C20.1936 9.2932 20.613 8.9963 21.188 8.9963C21.8855 8.9963 22.2766 9.32148 22.2766 9.91999V10.3253L20.8534 10.4101C19.5291 10.4902 18.8128 11.0322 18.8128 11.9747C18.8128 12.9267 19.5527 13.5582 20.613 13.5582ZM20.9194 12.6863C20.3114 12.6863 19.925 12.3941 19.925 11.9464C19.925 11.4846 20.2973 11.216 21.0089 11.1736L22.2766 11.0934V11.5082C22.2766 12.1962 21.6922 12.6863 20.9194 12.6863ZM24.7838 15.4998C25.8959 15.4998 26.4191 15.0757 26.8762 13.7891L28.8791 8.17158H27.7198L26.3766 12.512H26.3531L25.01 8.17158H23.8177L25.7499 13.5205L25.6462 13.8456C25.4718 14.397 25.189 14.6091 24.6848 14.6091C24.5952 14.6091 24.4209 14.5997 24.3502 14.5903V15.4715C24.4162 15.4904 24.6989 15.4998 24.7838 15.4998Z" fill="#191919"/>
</g>
</g>
</g>
</g>
<defs>
<clipPath id="clip0_10004_9169">
<rect width="33.25" height="21" fill="white"/>
</clipPath>
<clipPath id="clip1_10004_9169">
<rect width="33.25" height="21" fill="white"/>
</clipPath>
<clipPath id="clip2_10004_9169">
<rect width="33.25" height="21" fill="white"/>
</clipPath>
<clipPath id="clip3_10004_9169">
<rect width="24.1289" height="9.90605" fill="white" transform="translate(4.75 5.59375)"/>
</clipPath>
</defs>
</svg>
