<svg width="34" height="21" viewBox="0 0 34 21" fill="none" xmlns="http://www.w3.org/2000/svg">
<g clip-path="url(#clip0_10004_9176)">
<g clip-path="url(#clip1_10004_9176)">
<g clip-path="url(#clip2_10004_9176)">
<path d="M30.625 -0.0078125H2.625C1.1375 -0.0078125 0 1.12969 0 2.61719V18.3672C0 19.8547 1.225 20.9922 2.625 20.9922H30.625C32.1125 20.9922 33.25 19.8547 33.25 18.3672V2.61719C33.25 1.12969 32.025 -0.0078125 30.625 -0.0078125Z" fill="#D7D4D2"/>
<path d="M30.625 0.867188C31.5875 0.867188 32.375 1.65469 32.375 2.61719V18.3672C32.375 19.3297 31.5875 20.1172 30.625 20.1172H2.625C1.6625 20.1172 0.875 19.3297 0.875 18.3672V2.61719C0.875 1.65469 1.6625 0.867188 2.625 0.867188H30.625Z" fill="#F8FAFC"/>
<path fill-rule="evenodd" clip-rule="evenodd" d="M15.9074 7.66022V10.08H17.3996C17.7551 10.08 18.0491 9.96027 18.2814 9.72144C18.5202 9.48319 18.6399 9.19873 18.6399 8.86981C18.6399 8.54741 18.5202 8.2665 18.2814 8.02707C18.0491 7.78231 17.7551 7.65963 17.3996 7.65963L15.9074 7.66022ZM15.9074 10.9316V13.7384H15.0161V6.80859H17.3806C17.9809 6.80859 18.4906 7.00831 18.9107 7.40835C19.3374 7.80838 19.5507 8.29554 19.5507 8.86981C19.5507 9.45712 19.3374 9.94783 18.9107 10.3407C18.4977 10.7349 17.9868 10.931 17.38 10.931L15.9074 10.9316ZM20.4515 12.287C20.4515 12.5193 20.5499 12.7125 20.7472 12.8678C20.944 13.0219 21.1751 13.0995 21.4394 13.0995C21.8145 13.0995 22.1481 12.9608 22.4421 12.6841C22.7366 12.4061 22.883 12.0802 22.883 11.7062C22.605 11.4869 22.2175 11.3773 21.7203 11.3773C21.3588 11.3773 21.0566 11.465 20.8148 11.6392C20.5724 11.8135 20.4515 12.0286 20.4515 12.287ZM21.6047 8.84077C22.2637 8.84077 22.7834 9.01678 23.165 9.36822C23.5455 9.72025 23.7363 10.2027 23.7363 10.8155V13.7384H22.8836V13.0805H22.845C22.4764 13.6222 21.9858 13.8936 21.3718 13.8936C20.8491 13.8936 20.4112 13.7384 20.0592 13.429C19.7072 13.1191 19.5312 12.7321 19.5312 12.2674C19.5312 11.7767 19.7167 11.3868 20.0882 11.0964C20.4598 10.806 20.9552 10.6608 21.5757 10.6608C22.1043 10.6608 22.541 10.7574 22.883 10.9512V10.7473C22.883 10.4379 22.7603 10.1748 22.515 9.95909C22.2786 9.74636 21.9707 9.6306 21.6527 9.63491C21.1549 9.63491 20.7614 9.84411 20.4705 10.2643L19.6859 9.77003C20.1185 9.15072 20.7585 8.84077 21.6047 8.84077ZM28.6289 8.99604L25.654 15.8292H24.7337L25.8383 13.4385L23.8815 8.99604H24.8504L26.265 12.4031H26.2839L27.66 8.99545L28.6289 8.99604Z" fill="#191919"/>
<path fill-rule="evenodd" clip-rule="evenodd" d="M12.3136 10.3252C12.3136 10.0449 12.2899 9.77402 12.2448 9.51562H8.48535V11.0494H10.6389C10.5948 11.2944 10.5014 11.528 10.3645 11.736C10.2276 11.944 10.05 12.1221 9.84242 12.2596V13.2552H11.1278C11.8804 12.5618 12.3136 11.5365 12.3136 10.3252Z" fill="#4285F4"/>
<path fill-rule="evenodd" clip-rule="evenodd" d="M8.49565 14.2276C9.57182 14.2276 10.4773 13.875 11.1381 13.267L9.85272 12.2707C9.49537 12.5113 9.03492 12.6518 8.49565 12.6518C7.45622 12.6518 6.57323 11.9513 6.25797 11.0078H4.93408V12.0337C5.2662 12.6935 5.77507 13.2481 6.40395 13.6356C7.03283 14.0231 7.75698 14.2283 8.49565 14.2282" fill="#34A853"/>
<path fill-rule="evenodd" clip-rule="evenodd" d="M6.24878 11.0111C6.08248 10.5166 6.08248 9.98129 6.24878 9.4868V8.46094H4.9249C4.64503 9.01516 4.49948 9.62746 4.5 10.2484C4.5 10.8914 4.65408 11.4988 4.9249 12.0364L6.24878 11.0105V11.0111Z" fill="#FABB05"/>
<path fill-rule="evenodd" clip-rule="evenodd" d="M8.49505 7.84146C9.08292 7.84146 9.60915 8.04296 10.024 8.43885V8.43944L11.1618 7.30275C10.472 6.66033 9.57123 6.26563 8.49565 6.26563C7.75704 6.26553 7.03293 6.47061 6.40406 6.858C5.77519 7.24539 5.26628 7.79987 4.93408 8.45959L6.25797 9.48546C6.57323 8.54197 7.45562 7.84146 8.49505 7.84146Z" fill="#E94235"/>
</g>
</g>
</g>
<defs>
<clipPath id="clip0_10004_9176">
<rect width="33.25" height="21" fill="white"/>
</clipPath>
<clipPath id="clip1_10004_9176">
<rect width="33.25" height="21" fill="white"/>
</clipPath>
<clipPath id="clip2_10004_9176">
<rect width="33.25" height="21" fill="white"/>
</clipPath>
</defs>
</svg>
