<svg width="34" height="21" viewBox="0 0 34 21" fill="none" xmlns="http://www.w3.org/2000/svg">
<g clip-path="url(#clip0_10004_9155)">
<g clip-path="url(#clip1_10004_9155)">
<g clip-path="url(#clip2_10004_9155)">
<path d="M30.625 -0.0078125H2.625C1.1375 -0.0078125 0 1.12969 0 2.61719V18.3672C0 19.8547 1.225 20.9922 2.625 20.9922H30.625C32.1125 20.9922 33.25 19.8547 33.25 18.3672V2.61719C33.25 1.12969 32.025 -0.0078125 30.625 -0.0078125Z" fill="#D7D4D2"/>
<path d="M30.625 0.867188C31.5875 0.867188 32.375 1.65469 32.375 2.61719V18.3672C32.375 19.3297 31.5875 20.1172 30.625 20.1172H2.625C1.6625 20.1172 0.875 19.3297 0.875 18.3672V2.61719C0.875 1.65469 1.6625 0.867188 2.625 0.867188H30.625Z" fill="#F8FAFC"/>
<path d="M13.125 16.6172C16.5077 16.6172 19.25 13.8749 19.25 10.4922C19.25 7.10945 16.5077 4.36719 13.125 4.36719C9.74225 4.36719 7 7.10945 7 10.4922C7 13.8749 9.74225 16.6172 13.125 16.6172Z" fill="#EB001B"/>
<path d="M20.125 16.6172C23.5077 16.6172 26.25 13.8749 26.25 10.4922C26.25 7.10945 23.5077 4.36719 20.125 4.36719C16.7422 4.36719 14 7.10945 14 10.4922C14 13.8749 16.7422 16.6172 20.125 16.6172Z" fill="#F79E1B"/>
<path d="M19.25 10.4914C19.25 8.39141 18.2 6.55391 16.625 5.50391C15.05 6.64141 14 8.47891 14 10.4914C14 12.5039 15.05 14.4289 16.625 15.4789C18.2 14.4289 19.25 12.5914 19.25 10.4914Z" fill="#FF5F00"/>
</g>
</g>
</g>
<defs>
<clipPath id="clip0_10004_9155">
<rect width="33.25" height="21" fill="white"/>
</clipPath>
<clipPath id="clip1_10004_9155">
<rect width="33.25" height="21" fill="white"/>
</clipPath>
<clipPath id="clip2_10004_9155">
<rect width="33.25" height="21" fill="white"/>
</clipPath>
</defs>
</svg>
