<svg width="34" height="21" viewBox="0 0 34 21" fill="none" xmlns="http://www.w3.org/2000/svg">
<g clip-path="url(#clip0_10004_9187)">
<g clip-path="url(#clip1_10004_9187)">
<g clip-path="url(#clip2_10004_9187)">
<path d="M30.625 -0.0078125H2.625C1.1375 -0.0078125 0 1.12969 0 2.61719V18.3672C0 19.8547 1.225 20.9922 2.625 20.9922H30.625C32.1125 20.9922 33.25 19.8547 33.25 18.3672V2.61719C33.25 1.12969 32.025 -0.0078125 30.625 -0.0078125Z" fill="#D7D4D2"/>
<path d="M30.625 0.867188C31.5875 0.867188 32.375 1.65469 32.375 2.61719V18.3672C32.375 19.3297 31.5875 20.1172 30.625 20.1172H2.625C1.6625 20.1172 0.875 19.3297 0.875 18.3672V2.61719C0.875 1.65469 1.6625 0.867188 2.625 0.867188H30.625Z" fill="#F8FAFC"/>
<g clip-path="url(#clip3_10004_9187)">
<g clip-path="url(#clip4_10004_9187)">
<g clip-path="url(#clip5_10004_9187)">
<path d="M13.1867 8.57031H11.6975C11.5956 8.57031 11.5089 8.64501 11.493 8.74652L10.8907 12.5996C10.8787 12.6756 10.9371 12.7441 11.0136 12.7441H11.7245C11.8264 12.7441 11.9131 12.6695 11.929 12.5677L12.0914 11.5285C12.1071 11.4268 12.194 11.3521 12.2957 11.3521H12.7671C13.7481 11.3521 14.3143 10.8731 14.4621 9.92394C14.5288 9.50869 14.465 9.18242 14.2723 8.95393C14.0606 8.70302 13.6852 8.57031 13.1867 8.57031ZM13.3585 9.97754C13.2771 10.5167 12.8688 10.5167 12.474 10.5167H12.2493L12.407 9.50979C12.4163 9.44893 12.4686 9.40411 12.5296 9.40411H12.6326C12.9015 9.40411 13.1552 9.40411 13.2863 9.55879C13.3644 9.65108 13.3884 9.78816 13.3585 9.97754Z" fill="#253B80"/>
<path d="M17.6386 9.96219H16.9255C16.8647 9.96219 16.8123 10.007 16.8029 10.0679L16.7713 10.2691L16.7215 10.1962C16.5671 9.97011 16.2228 9.89453 15.8792 9.89453C15.0911 9.89453 14.418 10.4967 14.287 11.3415C14.2188 11.7629 14.3157 12.1659 14.5526 12.4469C14.7699 12.7053 15.0809 12.8129 15.4509 12.8129C16.0858 12.8129 16.4379 12.401 16.4379 12.401L16.4061 12.6009C16.3942 12.6774 16.4525 12.7459 16.5285 12.7459H17.1709C17.273 12.7459 17.3593 12.6712 17.3754 12.5695L17.7608 10.1068C17.773 10.031 17.7149 9.96219 17.6386 9.96219ZM16.6446 11.3626C16.5758 11.7737 16.2524 12.0497 15.84 12.0497C15.6329 12.0497 15.4674 11.9827 15.3611 11.8556C15.2557 11.7295 15.2157 11.55 15.2492 11.3501C15.3134 10.9425 15.6423 10.6576 16.0484 10.6576C16.2509 10.6576 16.4155 10.7255 16.5239 10.8536C16.6326 10.983 16.6757 11.1636 16.6446 11.3626Z" fill="#253B80"/>
<path d="M21.4369 9.96094H20.7203C20.6519 9.96094 20.5877 9.99521 20.5489 10.0526L19.5605 11.5215L19.1416 10.1099C19.1152 10.0216 19.0344 9.96094 18.943 9.96094H18.2387C18.1532 9.96094 18.0937 10.0453 18.1209 10.1266L18.9103 12.4639L18.1682 13.5209C18.1098 13.6042 18.1686 13.7186 18.2695 13.7186H18.9852C19.0531 13.7186 19.1167 13.6852 19.1553 13.629L21.5388 10.1576C21.5959 10.0745 21.5373 9.96094 21.4369 9.96094Z" fill="#253B80"/>
<path d="M23.8093 8.57031H22.3199C22.2181 8.57031 22.1315 8.64501 22.1156 8.74652L21.5133 12.5996C21.5013 12.6756 21.5597 12.7441 21.6357 12.7441H22.4C22.471 12.7441 22.5317 12.6919 22.5428 12.6207L22.7138 11.5285C22.7295 11.4268 22.8163 11.3521 22.918 11.3521H23.3892C24.3705 11.3521 24.9364 10.8731 25.0845 9.92394C25.1513 9.50869 25.0871 9.18242 24.8944 8.95393C24.6829 8.70302 24.3077 8.57031 23.8093 8.57031ZM23.9811 9.97754C23.8999 10.5167 23.4916 10.5167 23.0966 10.5167H22.8721L23.0299 9.50979C23.0393 9.44893 23.0912 9.40411 23.1523 9.40411H23.2553C23.524 9.40411 23.7779 9.40411 23.909 9.55879C23.9872 9.65108 24.0109 9.78816 23.9811 9.97754Z" fill="#179BD7"/>
<path d="M28.2607 9.96219H27.548C27.4869 9.96219 27.4348 10.007 27.4257 10.0679L27.3941 10.2691L27.344 10.1962C27.1896 9.97011 26.8456 9.89453 26.502 9.89453C25.7139 9.89453 25.041 10.4967 24.9099 11.3415C24.842 11.7629 24.9385 12.1659 25.1754 12.4469C25.3931 12.7053 25.7037 12.8129 26.0736 12.8129C26.7086 12.8129 27.0607 12.401 27.0607 12.401L27.0289 12.6009C27.0169 12.6774 27.0753 12.7459 27.1518 12.7459H27.7939C27.8956 12.7459 27.9822 12.6712 27.9982 12.5695L28.3837 10.1068C28.3954 10.031 28.3372 9.96219 28.2607 9.96219ZM27.2667 11.3626C27.1983 11.7737 26.8745 12.0497 26.4621 12.0497C26.2555 12.0497 26.0895 11.9827 25.9833 11.8556C25.8779 11.7295 25.8382 11.55 25.8713 11.3501C25.936 10.9425 26.2644 10.6576 26.6705 10.6576C26.873 10.6576 27.0376 10.7255 27.1461 10.8536C27.2552 10.983 27.2983 11.1636 27.2667 11.3626Z" fill="#179BD7"/>
<path d="M29.1011 8.67621L28.4898 12.5998C28.478 12.6758 28.5363 12.7444 28.6123 12.7444H29.2268C29.3288 12.7444 29.4156 12.6697 29.4313 12.5679L30.0339 8.7151C30.0459 8.63908 29.9876 8.57031 29.9116 8.57031H29.2236C29.1628 8.57053 29.1106 8.61536 29.1011 8.67621Z" fill="#179BD7"/>
<path d="M4.70664 13.4969L4.82052 12.767L4.56684 12.761H3.35547L4.19731 7.37529C4.19992 7.35903 4.20841 7.34387 4.22083 7.3331C4.23324 7.32234 4.24913 7.31641 4.26569 7.31641H6.30823C6.98632 7.31641 7.45427 7.45878 7.69859 7.73979C7.81314 7.87161 7.88607 8.00937 7.92135 8.16097C7.95838 8.32004 7.95903 8.51009 7.92288 8.74189L7.92028 8.7588V8.90733L8.03481 8.9728C8.13126 9.02443 8.20792 9.08354 8.26672 9.15121C8.3647 9.26392 8.42808 9.40717 8.45486 9.577C8.48251 9.75168 8.47336 9.95952 8.42808 10.1948C8.3758 10.4655 8.29132 10.7013 8.17722 10.8942C8.07226 11.0719 7.93855 11.2193 7.77982 11.3336C7.62826 11.4421 7.44817 11.5245 7.24459 11.5772C7.0473 11.6291 6.82233 11.6552 6.57562 11.6552H6.41666C6.303 11.6552 6.1926 11.6965 6.10594 11.7706C6.01906 11.8462 5.96156 11.9494 5.94393 12.0624L5.93196 12.1281L5.73074 13.4145L5.72159 13.4617C5.71919 13.4767 5.71507 13.4841 5.70897 13.4892C5.70352 13.4938 5.69569 13.4969 5.68807 13.4969H4.70664Z" fill="#253B80"/>
<path d="M8.14295 8.77344C8.13685 8.81276 8.1299 8.85297 8.12205 8.89428C7.85269 10.2897 6.93116 10.7717 5.75418 10.7717H5.15492C5.01099 10.7717 4.8897 10.8772 4.86727 11.0204L4.56045 12.9837L4.47357 13.5403C4.45898 13.6343 4.53084 13.7191 4.62491 13.7191H5.68778C5.81364 13.7191 5.92054 13.6268 5.94037 13.5016L5.95082 13.4471L6.15093 12.1658L6.16378 12.0954C6.18339 11.9698 6.29052 11.8775 6.41637 11.8775H6.57533C7.6051 11.8775 8.41122 11.4557 8.64683 10.235C8.74527 9.725 8.69431 9.2992 8.43387 8.99974C8.35504 8.90944 8.25729 8.83452 8.14295 8.77344Z" fill="#179BD7"/>
<path d="M7.86159 8.66005C7.82044 8.64797 7.77798 8.63698 7.73443 8.6271C7.69065 8.61743 7.6458 8.60886 7.59962 8.60139C7.43806 8.57502 7.26103 8.5625 7.07137 8.5625H5.47042C5.43101 8.5625 5.39356 8.57151 5.36002 8.58777C5.2862 8.62358 5.23133 8.69411 5.21804 8.78045L4.87747 10.9569L4.86768 11.0204C4.8901 10.8772 5.01139 10.7717 5.15533 10.7717H5.75459C6.93156 10.7717 7.85309 10.2894 8.12245 8.89426C8.13051 8.85296 8.13728 8.81275 8.14336 8.77342C8.0752 8.73695 8.0014 8.70575 7.92192 8.67917C7.90232 8.67258 7.88207 8.6662 7.86159 8.66005Z" fill="#222D65"/>
<path d="M5.21752 8.78139C5.2308 8.69505 5.28568 8.62452 5.35949 8.58893C5.39325 8.57267 5.43048 8.56366 5.4699 8.56366H7.07084C7.2605 8.56366 7.43753 8.57618 7.59909 8.60255C7.64527 8.61002 7.69012 8.61859 7.7339 8.62825C7.77745 8.63814 7.81991 8.64913 7.86106 8.66121C7.88154 8.66736 7.90179 8.67373 7.92161 8.68011C8.00109 8.70669 8.0749 8.73811 8.14305 8.77436C8.22318 8.2587 8.1424 7.90761 7.86608 7.58968C7.56144 7.23969 7.01161 7.08984 6.30804 7.08984H4.26549C4.12177 7.08984 3.99918 7.1953 3.97697 7.33878L3.1262 12.7799C3.10943 12.8876 3.19174 12.9847 3.29931 12.9847H4.56033L4.87695 10.9579L5.21752 8.78139Z" fill="#253B80"/>
</g>
</g>
</g>
</g>
</g>
</g>
<defs>
<clipPath id="clip0_10004_9187">
<rect width="33.25" height="21" fill="white"/>
</clipPath>
<clipPath id="clip1_10004_9187">
<rect width="33.25" height="21" fill="white"/>
</clipPath>
<clipPath id="clip2_10004_9187">
<rect width="33.25" height="21" fill="white"/>
</clipPath>
<clipPath id="clip3_10004_9187">
<rect width="27" height="7.25044" fill="white" transform="translate(3.125 7.08984)"/>
</clipPath>
<clipPath id="clip4_10004_9187">
<rect width="27" height="7.25044" fill="white" transform="translate(3.125 7.08984)"/>
</clipPath>
<clipPath id="clip5_10004_9187">
<rect width="27.0016" height="7.25044" fill="white" transform="translate(3.12402 7.08984)"/>
</clipPath>
</defs>
</svg>
