<svg width="34" height="21" viewBox="0 0 34 21" fill="none" xmlns="http://www.w3.org/2000/svg">
<g clip-path="url(#clip0_10004_9163)">
<g clip-path="url(#clip1_10004_9163)">
<g clip-path="url(#clip2_10004_9163)">
<path d="M30.625 -0.0078125H2.625C1.1375 -0.0078125 0 1.12969 0 2.61719V18.3672C0 19.8547 1.225 20.9922 2.625 20.9922H30.625C32.1125 20.9922 33.25 19.8547 33.25 18.3672V2.61719C33.25 1.12969 32.025 -0.0078125 30.625 -0.0078125Z" fill="#D7D4D2"/>
<path d="M30.625 0.867188C31.5875 0.867188 32.375 1.65469 32.375 2.61719V18.3672C32.375 19.3297 31.5875 20.1172 30.625 20.1172H2.625C1.6625 20.1172 0.875 19.3297 0.875 18.3672V2.61719C0.875 1.65469 1.6625 0.867188 2.625 0.867188H30.625Z" fill="#F8FAFC"/>
<path d="M24.7625 8.8297H24.5C24.15 9.7047 23.8875 10.1422 23.625 11.4547H25.2875C25.025 10.1422 25.025 9.5297 24.7625 8.8297ZM27.3 13.9922H25.8125C25.725 13.9922 25.725 13.9922 25.6375 13.9047L25.4625 13.1172L25.375 12.9422H23.275C23.1875 12.9422 23.1 12.9422 23.1 13.1172L22.8375 13.9047C22.8375 13.9922 22.75 13.9922 22.75 13.9922H20.9125L21.0875 13.5547L23.625 7.60469C23.625 7.16719 23.8875 6.99219 24.325 6.99219H25.6375C25.725 6.99219 25.8125 6.99219 25.8125 7.16719L27.0375 12.8547C27.125 13.2047 27.2125 13.4672 27.2125 13.8172C27.3 13.9047 27.3 13.9047 27.3 13.9922ZM15.575 13.7297L15.925 12.1547C16.0125 12.1547 16.1 12.2422 16.1 12.2422C16.7125 12.5047 17.325 12.6797 17.9375 12.5922C18.1125 12.5922 18.375 12.5047 18.55 12.4172C18.9875 12.2422 18.9875 11.8047 18.6375 11.4547C18.4625 11.2797 18.2 11.1922 17.9375 11.0172C17.5875 10.8422 17.2375 10.6672 16.975 10.4047C15.925 9.5297 16.275 8.30469 16.8875 7.69219C17.4125 7.34219 17.675 6.99219 18.375 6.99219C19.425 6.99219 20.5625 6.99219 21.0875 7.16719H21.175C21.0875 7.69219 21 8.12969 20.825 8.65469C20.3875 8.47969 19.95 8.30469 19.5125 8.30469C19.25 8.30469 18.9875 8.30469 18.725 8.39219C18.55 8.39219 18.4625 8.47969 18.375 8.56719C18.2 8.74219 18.2 9.0047 18.375 9.1797L18.8125 9.5297C19.1625 9.7047 19.5125 9.8797 19.775 10.0547C20.2125 10.3172 20.65 10.7547 20.7375 11.2797C20.9125 12.0672 20.65 12.7672 19.95 13.2922C19.5125 13.6422 19.3375 13.8172 18.725 13.8172C17.5 13.8172 16.5375 13.9047 15.75 13.6422C15.6625 13.8172 15.6625 13.8172 15.575 13.7297ZM12.5125 13.9922C12.6 13.3797 12.6 13.3797 12.6875 13.1172C13.125 11.1922 13.5625 9.1797 13.9125 7.25469C14 7.07969 14 6.99219 14.175 6.99219H15.75C15.575 8.04219 15.4 8.8297 15.1375 9.7922C14.875 11.1047 14.6125 12.4172 14.2625 13.7297C14.2625 13.9047 14.175 13.9047 14 13.9047L12.5125 13.9922ZM4.375 7.16719C4.375 7.07969 4.55 6.99219 4.6375 6.99219H7.6125C8.05 6.99219 8.4 7.25469 8.4875 7.69219L9.275 11.5422C9.275 11.6297 9.275 11.6297 9.3625 11.7172C9.3625 11.6297 9.45 11.6297 9.45 11.6297L11.2875 7.16719C11.2 7.07969 11.2875 6.99219 11.375 6.99219H13.2125C13.2125 7.07969 13.2125 7.07969 13.125 7.16719L10.4125 13.5547C10.325 13.7297 10.325 13.8172 10.2375 13.9047C10.15 13.9922 9.975 13.9047 9.8 13.9047H8.4875C8.4 13.9047 8.3125 13.9047 8.3125 13.7297L6.9125 8.30469C6.7375 8.12969 6.475 7.86719 6.125 7.77969C5.6 7.51719 4.6375 7.34219 4.4625 7.34219L4.375 7.16719Z" fill="#142688"/>
</g>
</g>
</g>
<defs>
<clipPath id="clip0_10004_9163">
<rect width="33.25" height="21" fill="white"/>
</clipPath>
<clipPath id="clip1_10004_9163">
<rect width="33.25" height="21" fill="white"/>
</clipPath>
<clipPath id="clip2_10004_9163">
<rect width="33.25" height="21" fill="white"/>
</clipPath>
</defs>
</svg>
